<svg viewBox="0 0 160 60" fill="none" xmlns="http://www.w3.org/2000/svg">
<mask id="mask0_6801_35687" style="mask-type:alpha" maskUnits="userSpaceOnUse" x="0" y="2" width="49" height="50">
<circle cx="24.2714" cy="27.0868" r="24.2714" fill="#D9D9D9"/>
</mask>
<g mask="url(#mask0_6801_35687)">
<circle cx="24.2714" cy="27.0868" r="24.2714" fill="#754FF6"/>
<g filter="url(#filter0_i_6801_35687)">
<path d="M1.0703 20.4786C-1.65316 18.5434 -3.01489 17.5759 -3.25979 16.1286C-3.50469 14.6814 -2.53712 13.3197 -0.601987 10.5962L2.35522 6.4343C4.29036 3.71083 5.25792 2.34911 6.70517 2.1042C8.15241 1.8593 9.51414 2.82687 12.2376 4.76201L26.0554 14.5801C27.8433 15.8505 28.7372 16.4857 29.3361 17.1987C31.034 19.2202 31.5048 22.0023 30.5665 24.4698C30.2356 25.3403 29.6004 26.2342 28.33 28.0221C27.0597 29.8099 26.4245 30.7039 25.7114 31.3028C23.69 33.0007 20.9079 33.4715 18.4403 32.5332C17.5699 32.2022 16.676 31.5671 14.8881 30.2967L1.0703 20.4786Z" fill="#009688"/>
</g>
<g filter="url(#filter1_di_6801_35687)">
<path d="M20.9338 41.8261C19.1088 40.6097 18.1963 40.0014 17.5764 39.3066C15.8189 37.3367 15.2653 34.5699 16.1295 32.0755C16.4343 31.1955 17.0425 30.283 18.2589 28.458C19.4754 26.633 20.0836 25.7205 20.7784 25.1006C22.7483 23.3431 25.5151 22.7895 28.0096 23.6537C28.8895 23.9585 29.802 24.5667 31.627 25.7831L48.3652 36.9398C50.9191 38.642 52.1961 39.4932 52.9072 40.595C53.7743 41.9386 54.099 43.5613 53.8156 45.1351C53.5833 46.4257 52.7321 47.7026 51.0298 50.2566C49.3145 52.8302 48.4568 54.1169 47.3465 54.8335C45.9925 55.7073 44.3574 56.0345 42.7715 55.7489C41.471 55.5148 40.1842 54.6571 37.6106 52.9417L20.9338 41.8261Z" fill="#34776B"/>
</g>
</g>
<path d="M70.5088 39.4935C68.5959 39.4935 66.817 39.1645 65.1721 38.5065C63.5272 37.8486 62.1199 36.9348 60.9502 35.7651C59.7805 34.5832 58.8667 33.1454 58.2087 31.4518C57.5508 29.7582 57.2218 27.9062 57.2218 25.8957C57.2218 23.2152 57.7884 20.8453 58.9215 18.7862C60.0547 16.7148 61.6265 15.1187 63.6369 13.9977C65.6595 12.8768 67.9501 12.3163 70.5088 12.3163C73.8474 12.3163 76.668 13.2362 78.9709 15.076C81.2737 16.9037 82.7663 19.3893 83.4486 22.5329H77.9839C77.3991 20.8149 76.467 19.4746 75.1876 18.512C73.9205 17.5495 72.3609 17.0682 70.5088 17.0682C68.072 17.0682 66.1042 17.8784 64.6055 19.499C63.119 21.1073 62.3758 23.2395 62.3758 25.8957C62.3758 28.5519 63.119 30.6903 64.6055 32.3108C66.1042 33.9313 68.072 34.7416 70.5088 34.7416C72.3609 34.7416 73.9205 34.2603 75.1876 33.2977C76.467 32.3352 77.3991 30.9949 77.9839 29.2769H83.4486C82.7663 32.4205 81.2737 34.9122 78.9709 36.752C76.668 38.5796 73.8474 39.4935 70.5088 39.4935ZM89.4689 39V20.1021H100.965C103 20.1021 104.62 20.5468 105.826 21.4363C107.045 22.3257 107.654 23.5137 107.654 25.0002C107.654 26.7669 106.71 28.1133 104.821 29.0393V29.1855C105.869 29.5876 106.691 30.1968 107.289 31.0132C107.886 31.8173 108.184 32.7677 108.184 33.8643C108.184 35.3508 107.581 36.5814 106.375 37.5562C105.168 38.5187 103.53 39 101.458 39H89.4689ZM94.367 27.4675H100.398C101.994 27.4675 102.792 26.8705 102.792 25.6764C102.792 24.4824 101.994 23.8853 100.398 23.8853H94.367V27.4675ZM94.367 35.2168H100.855C101.635 35.2168 102.238 35.034 102.665 34.6685C103.103 34.3029 103.323 33.8156 103.323 33.2063C103.323 32.5971 103.103 32.1158 102.665 31.7625C102.238 31.397 101.635 31.2142 100.855 31.2142H94.367V35.2168ZM122.849 39.4935C119.949 39.4935 117.555 38.5857 115.666 36.7703C113.79 34.9426 112.852 32.5423 112.852 29.5693C112.852 26.5842 113.79 24.1777 115.666 22.3501C117.555 20.5224 119.949 19.6086 122.849 19.6086C124.762 19.6086 126.474 20.0168 127.985 20.8331C129.496 21.6373 130.684 22.8009 131.549 24.324C132.426 25.8348 132.865 27.5833 132.865 29.5693C132.865 32.5423 131.92 34.9426 130.032 36.7703C128.155 38.5857 125.761 39.4935 122.849 39.4935ZM122.849 35.034C124.336 35.034 125.56 34.5405 126.523 33.5536C127.485 32.5545 127.967 31.2264 127.967 29.5693C127.967 27.9001 127.485 26.5659 126.523 25.5668C125.56 24.5676 124.336 24.0681 122.849 24.0681C121.375 24.0681 120.156 24.5676 119.194 25.5668C118.231 26.5659 117.75 27.9001 117.75 29.5693C117.75 31.2142 118.231 32.5362 119.194 33.5353C120.156 34.5344 121.375 35.034 122.849 35.034ZM156.686 20.1021V39H151.788V27.5406H151.642L143.509 39H138.611V20.1021H143.509V31.5797H143.673L151.788 20.1021H156.686Z" fill="#060606"/>
<defs>
<filter id="filter0_i_6801_35687" x="-3.29712" y="2.06689" width="34.3391" height="31.1361" filterUnits="userSpaceOnUse" color-interpolation-filters="sRGB">
<feFlood flood-opacity="0" result="BackgroundImageFix"/>
<feBlend mode="normal" in="SourceGraphic" in2="BackgroundImageFix" result="shape"/>
<feColorMatrix in="SourceAlpha" type="matrix" values="0 0 0 0 0 0 0 0 0 0 0 0 0 0 0 0 0 0 127 0" result="hardAlpha"/>
<feOffset dy="0.194171"/>
<feGaussianBlur stdDeviation="0.388342"/>
<feComposite in2="hardAlpha" operator="arithmetic" k2="-1" k3="1"/>
<feColorMatrix type="matrix" values="0 0 0 0 0.101493 0 0 0 0 0.658333 0 0 0 0 0.606362 0 0 0 0.25 0"/>
<feBlend mode="normal" in2="shape" result="effect1_innerShadow_6801_35687"/>
</filter>
<filter id="filter1_di_6801_35687" x="15.4853" y="21.068" width="42.0709" height="36.4806" filterUnits="userSpaceOnUse" color-interpolation-filters="sRGB">
<feFlood flood-opacity="0" result="BackgroundImageFix"/>
<feColorMatrix in="SourceAlpha" type="matrix" values="0 0 0 0 0 0 0 0 0 0 0 0 0 0 0 0 0 0 127 0" result="hardAlpha"/>
<feOffset dx="1.699" dy="-0.242714"/>
<feGaussianBlur stdDeviation="0.970855"/>
<feComposite in2="hardAlpha" operator="out"/>
<feColorMatrix type="matrix" values="0 0 0 0 0.204167 0 0 0 0 0.204167 0 0 0 0 0.204167 0 0 0 0.25 0"/>
<feBlend mode="normal" in2="BackgroundImageFix" result="effect1_dropShadow_6801_35687"/>
<feBlend mode="normal" in="SourceGraphic" in2="effect1_dropShadow_6801_35687" result="shape"/>
<feColorMatrix in="SourceAlpha" type="matrix" values="0 0 0 0 0 0 0 0 0 0 0 0 0 0 0 0 0 0 127 0" result="hardAlpha"/>
<feOffset dy="0.194171"/>
<feGaussianBlur stdDeviation="0.388342"/>
<feComposite in2="hardAlpha" operator="arithmetic" k2="-1" k3="1"/>
<feColorMatrix type="matrix" values="0 0 0 0 0.22 0 0 0 0 0.733333 0 0 0 0 0.641393 0 0 0 0.5 0"/>
<feBlend mode="normal" in2="shape" result="effect2_innerShadow_6801_35687"/>
</filter>
</defs>
</svg>
